<?xml version="1.0" encoding="UTF-8" standalone="no"?>
<!DOCTYPE svg PUBLIC "-//W3C//DTD SVG 1.1//EN" "http://www.w3.org/Graphics/SVG/1.1/DTD/svg11.dtd">
<svg width="100%" height="100%" viewBox="0 0 242 150" version="1.1" xmlns="http://www.w3.org/2000/svg" xmlns:xlink="http://www.w3.org/1999/xlink" xml:space="preserve" xmlns:serif="http://www.serif.com/" style="fill-rule:evenodd;clip-rule:evenodd;stroke-linejoin:round;stroke-miterlimit:2;">
    <g>
        <path d="M167.031,150l0,-61.365c0,-9.109 7.385,-16.494 16.494,-16.494c4.669,0 58.506,0 58.506,0l0,27.919l-0.001,0c-2.21,0 -4.329,0.878 -5.891,2.441c-1.563,1.562 -2.441,3.682 -2.441,5.891c0,6.76 0,16.504 0,24.863c0,9.248 -7.497,16.745 -16.745,16.745c-19.748,-0 -49.922,-0 -49.922,-0Z" style="fill:#4d4d4d;"/>
        <path d="M141.344,111.325c-0,-9.262 7.508,-16.77 16.769,-16.77l58.231,0l-0,26.694c-0,4.49 -3.64,8.13 -8.13,8.13c-4.233,-0 -8.537,-0 -8.537,-0l0,0.001c0,2.298 1.863,4.16 4.16,4.16c2.386,0 4.912,0 4.912,0l-0,0.002c-0,4.365 -1.734,8.551 -4.821,11.638c-3.086,3.086 -7.272,4.82 -11.637,4.82l-50.947,-0l-0,-38.675Z" style="fill:#e6e6e6;"/>
        <path d="M120.921,16.73c0,-9.239 7.5,-16.73 16.751,-16.73l23.21,0l-0,41.656c-0,2.197 0.874,4.304 2.429,5.857c1.556,1.554 3.665,2.427 5.865,2.427l0.002,-0c9.225,-0 16.704,7.469 16.704,16.684l-0,66.726c-0,4.368 -1.737,8.557 -4.83,11.645c-3.092,3.089 -7.286,4.824 -11.659,4.824l-48.472,0l0,-133.089Z" style="fill:#4d4d4d;"/>
        <path d="M96.441,16.911c-0,-9.24 7.499,-16.73 16.751,-16.73l23.21,-0l-0,41.656c-0,2.197 0.873,4.304 2.429,5.857c1.555,1.554 3.665,2.427 5.865,2.427l0.002,-0c9.225,-0 16.704,7.469 16.704,16.683l-0,66.727c-0,4.368 -1.738,8.557 -4.83,11.645c-3.092,3.089 -7.286,4.824 -11.659,4.824l-48.472,-0l-0,-133.089Z" style="fill:#595959;"/>
        <path d="M99.48,71.96c-9.28,0 -16.803,7.523 -16.803,16.804c0,22.888 0,61.055 0,61.055l49.864,0c9.28,0 16.803,-7.523 16.803,-16.803l-0,-61.056l-20.673,0c-4.691,0 -8.494,3.803 -8.494,8.494c0,0.961 0,1.906 0,2.774c0,2.301 -1.865,4.166 -4.166,4.166c-0,0 -0.001,0 -0.001,0l0,-7.032c0,-2.228 -0.885,-4.365 -2.46,-5.941c-1.576,-1.575 -3.713,-2.461 -5.941,-2.461c-2.489,0 -5.306,0 -8.129,0Z" style="fill:#e6e6e6;"/>
        <path d="M55.594,11.708l-0,138.111l34.181,0c4.429,0 8.678,-1.76 11.81,-4.892c3.132,-3.132 4.892,-7.381 4.892,-11.81c-0,-14.518 -0,-33.238 -0,-33.238l-5.028,0c-1.111,0 -2.176,-0.441 -2.962,-1.226c-0.785,-0.786 -1.227,-1.851 -1.227,-2.962c0,-17.514 0,-83.983 0,-83.983l-41.666,-0Z" style="fill:#595959;"/>
        <path d="M0,28.438c-0,-9.24 7.5,-16.73 16.751,-16.73l46.438,-0l-0,29.948c-0,2.197 0.874,4.304 2.429,5.857c1.556,1.554 3.665,2.427 5.865,2.427l0.002,-0c9.225,-0 16.704,7.469 16.704,16.684l-0,66.726c-0,4.368 -1.737,8.557 -4.83,11.645c-3.092,3.089 -7.286,4.824 -11.659,4.824l-71.7,0l0,-121.381Z" style="fill:#e6e6e6;"/>
    </g>
</svg>
